<svg xmlns="http://www.w3.org/2000/svg" xmlns:xlink="http://www.w3.org/1999/xlink" viewBox="0 0 32 32">
    <path id="chevron-down-a" d="M17.2477064,19.1692339 C16.9051984,19.5662149 16.489297,19.7647059 16,19.7647059 C15.510703,19.7647059 15.0948016,19.5662149 14.7522936,19.1692339 L0.513761468,4.72903955 C0.171253449,4.38168054 0,3.95988868 0,3.46366169 C0,2.9674347 0.171253449,2.54564284 0.513761468,2.19828383 L2.12844037,0.56073601 C2.47094839,0.213377003 2.88684978,0.0272920238 3.37614679,0.00248107181 C3.8654438,-0.0223298802 4.28134519,0.138943011 4.62385321,0.486302018 L16,12.0235707 L27.3761468,0.486302018 C27.7186548,0.138943011 28.1345562,-0.0223298802 28.6238532,0.00248107181 C29.1131502,0.0272920238 29.5290516,0.213377003 29.8715596,0.56073601 L31.4862385,2.19828383 C31.8287466,2.54564284 32,2.9674347 32,3.46366169 C32,3.95988868 31.8287466,4.38168054 31.4862385,4.72903955 L17.2477064,19.1692339 Z"/>
</svg>
